<svg version="1.0" xmlns="http://www.w3.org/2000/svg" width="180.000000pt" height="180.000000pt" viewBox="0 0 180.000000 180.000000" preserveAspectRatio="xMidYMid meet" style="width: 179.105px; height: auto;"> <g transform="translate(0.000000,180.000000) scale(0.100000,-0.100000)" fill="#000000" stroke="none"> <path d="M848 1734 c-4 -3 -27 -8 -50 -9 -90 -5 -246 -51 -343 -102 -148 -77 -282 -202 -358 -334 -34 -60 -66 -141 -82 -207 -18 -77 -19 -244 0 -330 30 -143 137 -320 250 -414 62 -52 171 -119 224 -138 31 -11 65 -25 76 -30 83 -38 344 -52 494 -26 52 9 101 22 108 28 7 6 13 8 13 5 0 -3 32 8 71 24 39 16 77 29 85 29 7 0 40 -13 71 -29 78 -38 233 -120 260 -137 58 -36 86 6 55 82 -20 51 -36 95 -81 224 l-27 75 38 50 c41 53 87 145 120 235 17 46 20 81 20 215 1 141 -2 167 -21 215 -11 30 -21 61 -21 68 0 7 -11 30 -25 50 -14 20 -25 45 -25 55 0 21 -134 155 -220 221 -94 71 -155 98 -368 161 -29 9 -67 16 -85 16 -18 0 -64 2 -102 5 -39 3 -73 2 -77 -2z m126 -33 c3 -4 36 -11 73 -14 69 -6 154 -26 208 -48 17 -7 33 -12 38 -11 4 1 7 -2 7 -8 0 -6 3 -9 8 -8 20 7 166 -89 235 -154 l79 -73 -67 0 c-51 -1 -70 -5 -79 -17 -11 -16 -14 -15 -30 4 -16 19 -25 20 -95 14 -104 -10 -117 -20 -130 -103 -26 -173 -43 -315 -38 -333 3 -11 2 -22 -2 -24 -4 -3 -8 7 -9 21 -5 62 -104 379 -123 395 -15 13 -33 15 -77 12 -141 -12 -146 -16 -166 -166 -8 -57 -14 -88 -15 -69 -2 63 -32 149 -67 190 -37 43 -120 81 -178 81 -49 0 -135 -28 -188 -62 -199 -126 -315 -501 -219 -712 41 -88 118 -140 211 -140 56 -1 111 16 142 42 15 12 19 10 37 -25 30 -56 46 -73 67 -73 25 0 90 45 105 71 11 21 11 20 30 -10 21 -35 43 -38 127 -20 84 17 86 24 107 218 9 94 15 181 12 193 -3 11 -2 17 2 12 5 -5 34 -90 66 -189 68 -215 76 -232 112 -239 35 -7 135 18 147 38 8 12 15 9 37 -15 22 -23 35 -29 70 -29 61 0 104 36 117 96 14 64 -4 104 -59 133 -33 16 -88 1 -121 -32 -16 -17 -19 -18 -15 -5 3 9 9 45 12 80 9 88 63 401 81 473 17 64 30 90 21 40 -3 -16 -13 -79 -21 -140 -9 -60 -22 -155 -30 -210 -17 -125 -12 -141 47 -150 25 -4 53 -5 63 -3 21 3 36 46 125 353 28 99 56 185 61 190 6 7 8 7 7 0 -2 -5 2 -19 8 -30 22 -39 54 -151 64 -222 11 -77 0 -205 -22 -258 -7 -17 -11 -34 -10 -38 1 -5 -8 -23 -19 -42 -11 -18 -20 -40 -20 -49 0 -9 -5 -16 -12 -16 -6 0 -9 -3 -6 -6 4 -3 -5 -22 -18 -42 -13 -20 -30 -45 -37 -56 -6 -10 -20 -29 -29 -41 -20 -26 -24 -55 -7 -55 6 0 9 -7 6 -15 -4 -8 -2 -17 4 -20 5 -4 7 -10 4 -15 -6 -9 -3 -16 29 -78 9 -17 14 -32 11 -32 -3 0 0 -10 7 -22 7 -13 13 -27 13 -33 1 -5 6 -20 13 -32 7 -13 9 -23 5 -23 -4 0 -3 -4 3 -8 14 -9 27 -62 15 -62 -5 0 -11 5 -13 11 -2 5 -10 11 -18 13 -15 2 -106 48 -145 73 -43 27 -167 83 -185 83 -19 0 -207 -60 -228 -74 -7 -4 -17 -4 -22 -1 -6 4 -17 1 -25 -5 -8 -7 -26 -10 -40 -8 -14 3 -28 1 -31 -3 -7 -12 -264 -11 -264 0 0 6 -16 7 -35 4 -23 -4 -35 -2 -35 6 0 7 -6 11 -12 10 -7 -1 -20 0 -28 3 -8 3 -44 15 -80 27 -69 23 -210 99 -210 113 0 4 -6 8 -12 8 -13 0 -138 122 -138 134 0 4 -13 24 -28 44 -41 53 -89 165 -107 250 -38 181 -5 361 96 531 39 66 162 193 229 237 112 72 295 144 366 144 13 0 24 3 24 8 0 4 22 5 50 4 32 -3 50 0 50 7 0 13 106 15 114 2z m690 -346 c5 -15 -12 -87 -79 -315 -19 -63 -44 -151 -57 -195 l-24 -80 -43 -3 -43 -3 5 63 c6 80 25 235 37 313 5 33 12 88 16 122 8 86 16 94 97 96 37 1 67 5 67 10 0 13 18 7 24 -8z m-1027 -22 c78 -36 123 -130 124 -260 1 -128 -29 -231 -104 -350 -43 -69 -42 -72 16 -146 l31 -37 -44 -45 c-24 -25 -49 -45 -55 -45 -12 0 -42 38 -64 83 -8 15 -18 27 -23 27 -5 0 -31 -12 -59 -26 -132 -69 -267 -3 -310 151 -14 49 -13 171 1 245 17 90 71 208 130 285 93 119 244 169 357 118z m798 17 c3 -5 1 -18 -4 -28 -28 -52 -100 -431 -121 -637 -19 -184 -15 -173 -63 -185 -23 -6 -46 -12 -52 -14 -5 -2 -19 0 -31 4 -17 7 -36 53 -100 249 -43 133 -84 241 -91 241 -11 0 -18 -40 -28 -170 -11 -150 -28 -285 -37 -296 -9 -12 -57 -25 -116 -30 -22 -2 -35 2 -38 11 -3 8 8 115 25 237 17 123 40 297 51 388 13 99 26 170 34 179 15 14 157 34 167 23 4 -4 33 -97 64 -207 96 -337 97 -338 124 -95 16 140 38 293 46 312 5 13 21 18 63 20 31 2 66 4 78 5 13 2 26 -2 29 -7z m22 -62 c-3 -8 -6 -5 -6 6 -1 11 2 17 5 13 3 -3 4 -12 1 -19z m-686 -420 c-5 -18 -18 -96 -28 -172 -13 -107 -20 -135 -28 -121 -5 10 -20 30 -32 45 -26 32 -29 53 -9 69 21 18 60 97 81 164 10 31 20 55 22 53 3 -3 0 -20 -6 -38z m712 -236 c20 -18 22 -76 3 -111 -7 -13 -27 -29 -43 -36 -27 -11 -35 -11 -61 5 -56 34 -44 127 20 154 34 15 53 12 81 -12z"></path> <path d="M327 1389 c7 -7 15 -10 18 -7 3 3 -2 9 -12 12 -14 6 -15 5 -6 -5z"></path> <path d="M850 1391 c0 -6 4 -13 10 -16 6 -3 7 1 4 9 -7 18 -14 21 -14 7z"></path> <path d="M1092 1388 c-7 -7 -12 -17 -12 -22 0 -6 5 -3 11 7 6 9 15 14 21 11 7 -4 8 -2 4 4 -9 15 -9 15 -24 0z"></path> <path d="M816 1364 c-23 -23 -20 -30 4 -9 11 10 20 20 20 22 0 7 -9 2 -24 -13z"></path> <path d="M246 1302 c-3 -5 1 -9 9 -9 8 0 12 4 9 9 -3 4 -7 8 -9 8 -2 0 -6 -4 -9 -8z"></path> <path d="M760 1306 c0 -2 8 -10 18 -17 15 -13 16 -12 3 4 -13 16 -21 21 -21 13z"></path> <path d="M176 1223 c-6 -14 -5 -15 5 -6 7 7 10 15 7 18 -3 3 -9 -2 -12 -12z"></path> <path d="M1705 1099 c-4 -6 -5 -12 -2 -15 2 -3 7 2 10 11 7 17 1 20 -8 4z"></path> <path d="M94 1065 c-3 -8 -4 -20 -2 -27 3 -7 7 -1 10 15 6 29 1 36 -8 12z"></path> <path d="M1676 1035 c-9 -26 -7 -32 5 -12 6 10 9 21 6 23 -2 3 -7 -2 -11 -11z"></path> <path d="M1365 710 c-3 -6 1 -7 9 -4 18 7 21 14 7 14 -6 0 -13 -4 -16 -10z"></path> <path d="M1060 461 c0 -6 4 -13 10 -16 6 -3 7 1 4 9 -7 18 -14 21 -14 7z"></path> <path d="M925 450 c3 -5 8 -10 11 -10 2 0 4 5 4 10 0 6 -5 10 -11 10 -5 0 -7 -4 -4 -10z"></path> <path d="M1286 452 c-3 -5 1 -9 9 -9 8 0 12 4 9 9 -3 4 -7 8 -9 8 -2 0 -6 -4 -9 -8z"></path> <path d="M700 421 c0 -6 4 -13 10 -16 6 -3 7 1 4 9 -7 18 -14 21 -14 7z"></path> <path d="M1145 240 c-3 -6 1 -7 9 -4 18 7 21 14 7 14 -6 0 -13 -4 -16 -10z"></path> <path d="M432 1166 c-45 -32 -70 -63 -101 -126 -55 -110 -66 -250 -25 -319 23 -39 73 -66 107 -57 31 7 35 34 11 71 -15 23 -14 26 25 67 l40 43 24 -29 c15 -18 30 -27 39 -24 16 7 43 93 53 176 22 170 -67 272 -173 198z m111 -26 c33 -30 40 -136 16 -253 l-12 -58 -22 21 c-30 28 -52 25 -87 -12 -57 -61 -61 -72 -44 -111 14 -34 14 -35 -6 -32 -94 18 -103 201 -18 350 55 96 129 136 173 95z"></path> <path d="M506 1115 c4 -8 10 -15 16 -15 5 0 6 -5 2 -12 -5 -7 -3 -8 5 -4 9 6 8 13 -5 27 -21 23 -25 24 -18 4z"></path> <path d="M376 933 c-6 -14 -5 -15 5 -6 7 7 10 15 7 18 -3 3 -9 -2 -12 -12z"></path> <path d="M465 912 c3 -3 -3 -11 -13 -19 -15 -13 -15 -13 5 -3 28 13 37 27 18 27 -8 0 -13 -3 -10 -5z"></path> <path d="M500 906 c0 -2 7 -7 16 -10 8 -3 12 -2 9 4 -6 10 -25 14 -25 6z"></path> <path d="M365 829 c-4 -6 -5 -12 -2 -15 2 -3 7 2 10 11 7 17 1 20 -8 4z"></path> <path d="M1505 1611 c-3 -5 -2 -12 3 -15 5 -3 9 1 9 9 0 17 -3 19 -12 6z"></path> <path d="M1570 1546 c0 -2 8 -10 18 -17 15 -13 16 -12 3 4 -13 16 -21 21 -21 13z" class=""></path> </g> </svg>