<?xml version="1.0" standalone="no"?>
<!DOCTYPE svg PUBLIC "-//W3C//DTD SVG 20010904//EN"
 "http://www.w3.org/TR/2001/REC-SVG-20010904/DTD/svg10.dtd">
<svg version="1.0" xmlns="http://www.w3.org/2000/svg"
 width="32pt" height="32pt" viewBox="0 0 32 32"
 preserveAspectRatio="xMidYMid meet">

<g transform="translate(0.000000,180.000000) scale(0.100000,-0.100000)"
fill="#000000" stroke="none">
<path d="M850 1709 c-19 -4 -68 -12 -107 -18 -115 -17 -281 -80 -334 -127 -8
-8 -21 -14 -27 -14 -11 0 -165 -148 -192 -185 -130 -177 -175 -368 -138 -586
11 -65 11 -76 -10 -134 -40 -116 -26 -147 62 -138 l54 6 93 -94 c109 -110 210
-173 339 -214 71 -22 110 -28 235 -32 174 -6 262 5 385 48 47 16 95 32 107 35
22 6 115 -35 271 -121 91 -49 103 -52 122 -30 14 17 7 49 -35 160 -15 39 -37
100 -50 136 l-22 65 34 50 c121 173 171 373 137 544 -9 47 -18 105 -21 130 -6
72 -12 88 -32 95 -11 3 -35 29 -55 58 -42 63 -153 172 -219 216 -103 67 -220
113 -332 131 -38 6 -89 15 -113 20 -48 11 -102 11 -152 -1z m225 -50 c5 -5 20
-9 33 -9 51 0 245 -76 316 -123 55 -36 195 -173 196 -190 0 -5 8 -16 17 -25
15 -16 13 -18 -35 -27 -28 -5 -54 -13 -57 -17 -4 -4 -14 0 -22 8 -12 12 -31
13 -92 8 -89 -7 -114 -26 -125 -95 -3 -24 -14 -84 -23 -133 l-16 -90 -44 137
c-31 95 -51 141 -65 148 -24 13 -171 1 -194 -15 -9 -7 -21 -36 -28 -66 l-12
-54 -23 46 c-54 112 -191 151 -336 97 -78 -29 -178 -127 -223 -218 -23 -47
-32 -57 -32 -40 0 37 -18 49 -76 49 -59 0 -67 -7 -85 -70 -7 -25 -16 -49 -19
-55 -4 -5 -13 -32 -20 -58 -20 -76 -33 -34 -28 87 4 73 12 121 31 173 30 85
79 178 113 214 13 14 24 30 24 36 0 6 33 37 73 69 39 33 78 65 86 72 22 21
141 77 211 101 69 22 132 37 215 51 59 10 226 2 240 -11z m-284 -436 c127 -69
136 -285 19 -461 -22 -33 -40 -66 -40 -74 0 -8 14 -30 30 -48 17 -18 30 -40
30 -47 0 -7 -19 -27 -42 -44 l-43 -30 -20 25 c-11 14 -27 35 -36 47 l-16 23
-57 -22 c-167 -64 -296 26 -296 205 0 290 271 535 471 426z m712 20 c3 -5 -6
-46 -20 -93 -37 -128 -72 -301 -88 -438 -8 -67 -17 -127 -20 -132 -9 -14 -114
-35 -124 -24 -5 5 -39 87 -75 183 -76 198 -85 217 -96 205 -4 -5 -16 -89 -25
-187 -16 -155 -21 -179 -37 -188 -29 -15 -124 -23 -132 -11 -3 5 9 108 28 228
19 121 40 259 47 307 7 48 18 95 25 105 9 12 31 17 86 20 l73 4 60 -182 c32
-99 65 -186 71 -191 15 -12 20 2 29 86 4 33 15 112 26 175 10 63 19 116 19
118 0 17 144 30 153 15z m217 -10 c0 -32 -145 -455 -158 -460 -6 -3 -23 -2
-37 1 -22 6 -25 12 -25 48 0 23 4 67 10 97 5 31 19 114 29 185 12 75 26 133
33 138 7 4 43 8 81 8 57 0 67 -3 67 -17z m22 -273 c1 -107 -15 -182 -62 -281
-28 -61 -59 -118 -70 -129 -15 -15 -50 -71 -50 -79 0 -16 44 -148 79 -234 17
-43 31 -82 31 -87 0 -13 -23 -3 -115 48 -130 74 -192 102 -222 102 -16 0 -63
-13 -105 -29 -42 -16 -93 -33 -114 -37 -22 -3 -45 -12 -53 -18 -19 -15 -353
-15 -372 0 -8 6 -36 17 -64 23 -58 14 -221 91 -250 118 -11 10 -38 32 -59 48
-22 17 -52 48 -68 69 -23 32 -26 42 -15 54 6 8 22 65 34 126 11 61 21 97 22
80 2 -50 47 -129 91 -158 56 -37 126 -50 192 -37 29 7 60 16 68 21 10 6 23 -2
48 -31 41 -47 65 -49 119 -10 l39 28 24 -19 c21 -17 33 -19 80 -13 106 13 125
36 135 160 3 44 9 95 12 113 6 33 6 33 30 -30 72 -187 86 -218 99 -229 20 -16
108 -12 145 7 28 14 32 14 49 -1 50 -45 150 -22 176 40 27 65 12 110 -47 141
-27 14 -35 14 -75 0 l-44 -15 6 42 c15 109 34 210 40 216 4 3 4 -7 0 -24 -3
-16 -9 -62 -12 -100 -8 -87 1 -97 77 -93 50 3 54 5 70 38 10 19 39 102 65 184
43 132 49 145 57 120 5 -16 9 -72 9 -124z m-1464 45 c3 -2 -20 -166 -38 -280
-5 -33 -13 -84 -16 -113 -8 -64 -20 -72 -108 -72 -51 0 -66 3 -66 14 0 8 34
115 75 238 41 123 75 225 75 227 0 3 73 -9 78 -14z m1209 -17 c-3 -8 -6 -5 -6
6 -1 11 2 17 5 13 3 -3 4 -12 1 -19z m-623 -282 c-4 -36 -10 -66 -13 -65 -11
1 -53 59 -42 59 5 0 20 18 32 40 12 22 24 38 26 36 2 -2 1 -33 -3 -70z m684
-32 c32 -22 25 -91 -12 -116 -20 -13 -69 -8 -88 9 -35 32 -13 107 35 116 39 8
42 7 65 -9z"/>
<path d="M223 1263 c-66 -33 -80 -124 -27 -174 20 -19 36 -24 71 -23 40 1 51
6 80 37 52 57 44 130 -17 162 -36 19 -66 18 -107 -2z m102 -37 c29 -21 24 -74
-9 -103 -33 -28 -69 -30 -96 -3 -60 60 36 157 105 106z"/>
<path d="M604 1100 c-52 -23 -87 -63 -121 -135 -23 -48 -28 -74 -28 -132 0
-68 2 -75 32 -104 22 -23 41 -32 63 -32 43 0 52 12 38 50 -11 28 -9 34 13 57
28 30 45 32 70 10 27 -25 46 -11 63 47 23 75 21 166 -4 207 -11 17 -21 32 -22
32 -2 0 -17 4 -34 9 -24 7 -41 4 -70 -9z m94 -48 c13 -17 15 -130 3 -172 -5
-15 -14 -23 -22 -21 -53 15 -60 13 -100 -28 -36 -35 -41 -45 -35 -71 5 -28 4
-30 -14 -20 -45 24 -53 105 -21 190 46 120 141 182 189 122z"/>
</g>
</svg>
